<?xml version="1.0" encoding="UTF-8"?>
<svg id="Layer_2" xmlns="http://www.w3.org/2000/svg" xmlns:xlink="http://www.w3.org/1999/xlink" viewBox="0 0 146.12 35.14">
  <defs>
    <style>
      .cls-1 {
        fill: #968930;
        font-family: MyriadConceptRoman-Regular, 'Myriad Variable Concept';
        font-size: 7.77px;
        font-variation-settings: 'wght' 400, 'wdth' 100;
      }

      .cls-2 {
        fill: url(#linear-gradient-2);
      }

      .cls-3 {
        fill: #fff;
      }

      .cls-4 {
        fill: url(#linear-gradient-4);
      }

      .cls-5 {
        fill: url(#linear-gradient-3);
      }

      .cls-6 {
        fill: url(#linear-gradient-5);
      }

      .cls-7, .cls-8 {
        fill: #19181c;
      }

      .cls-8 {
        font-family: HacenTypographerHeavy, 'Hacen Typographer Heavy';
        font-size: 6.37px;
      }

      .cls-9 {
        fill: url(#linear-gradient-7);
      }

      .cls-10 {
        fill: url(#linear-gradient-6);
      }

      .cls-11 {
        fill: url(#linear-gradient);
      }
    </style>
    <linearGradient id="linear-gradient" x1="10.03" y1="40.24" x2="47.67" y2="2.6" gradientUnits="userSpaceOnUse">
      <stop offset="0" stop-color="#77722a"/>
      <stop offset=".51" stop-color="#ada233"/>
      <stop offset="1" stop-color="#77722a"/>
    </linearGradient>
    <linearGradient id="linear-gradient-2" x1="67.39" y1="15.28" x2="77.07" y2="5.59" xlink:href="#linear-gradient"/>
    <linearGradient id="linear-gradient-3" x1="80.59" y1="18.55" x2="94.43" y2="4.7" xlink:href="#linear-gradient"/>
    <linearGradient id="linear-gradient-4" x1="95.99" y1="15.23" x2="103.12" y2="8.1" xlink:href="#linear-gradient"/>
    <linearGradient id="linear-gradient-5" x1="110.49" y1="16.32" x2="119.95" y2="6.86" xlink:href="#linear-gradient"/>
    <linearGradient id="linear-gradient-6" x1="124.12" y1="14.09" x2="133.07" y2="5.14" xlink:href="#linear-gradient"/>
    <linearGradient id="linear-gradient-7" x1="135.67" y1="15.99" x2="144.46" y2="7.2" xlink:href="#linear-gradient"/>
  </defs>
  <g id="Layer_1-2" data-name="Layer_1">
    <g>
      <g>
        <path class="cls-7" d="M32.38,2.95c-.03.06-.07.12-.12.16-.76.65-1.62,1.18-2.56.53-1.01-.69-1.39-1.72-.56-2.83.71-.94,1.67-1.06,2.6-.39.87.63,1.06,1.54.64,2.53Z"/>
        <path class="cls-7" d="M20.69,25.78c-1.15,2.04-2.71,2.47-4.51,1.52-1.88-.99-2.38-2.61-1.24-4.76,2.22-4.18,4.54-8.31,6.83-12.46.32-.58.6-1.29,1.46-1.18,1.85.24,4.42-.77,6.46.14.23.1.33.38.2.6-2.87,5.19-6.33,11.06-9.21,16.15ZM26.09,14.16c.26-.44.19-.86-.3-1.11-.39-.2-.75-.08-.97.26-.27.44-.13.82.22,1.07.02.02.05.03.07.04.45.21.78.07.97-.26ZM25.87,11c.14.07.47,0,.57-.12.26-.3.03-.58-.23-.73-.08-.04-.19-.04-.3-.02-.2.04-.36.21-.36.42s.14.35.31.44ZM23.36,11.4c.05-.14-.02-.44-.13-.51-.28-.16-.57-.01-.69.27-.03.08-.02.17,0,.26.05.2.24.34.44.32.19-.03.3-.16.37-.34Z"/>
        <path class="cls-7" d="M28.1,5.64c-.06-.13-.18-.23-.32-.25-.81-.14-1.42-.16-1.7.61-.21.59-.23,1.19.47,1.55.8.42,1.31.03,1.65-.64.26-.5.05-.91-.1-1.27Z"/>
      </g>
      <path class="cls-11" d="M23.17,34.78c-.33,0-.53-.35-.37-.64,2.99-5.29,5.99-10.18,8.48-15.32,1.58-3.27,3.6-4.55,7.15-4.08,1.99.26,4.05.09,6.42.06.33,0,.54.35.38.64-1.62,2.91-3.05,5.46-4.47,8.02-1.43,2.57-2.86,5.15-4.34,7.82-.15.26.02.59.31.63,3.13.45,5.58-.44,7.7-2.44,3.78-3.56,6.56-7.74,7.69-12.86.73-3.31-.5-4.81-3.89-4.84-4.08-.03-8.17.07-12.25-.05-1.6-.04-2.41.55-3.18,1.9-2.67,4.73-5.29,9.52-8.31,14.03-4.28,6.39-11.28,8.67-18.66,6.52-5.46-1.6-7.3-5.62-4.63-10.7,2.4-4.57,5.02-9.03,7.67-13.46.41-.68,1.5-1.28,2.31-1.32,3.05-.14,6.11-.07,9.54-.06.32,0,.52.34.38.62-.43.83-.77,1.51-1.14,2.18-2.62,4.86-5.34,9.68-7.8,14.62-.52,1.04-.65,2.96-.03,3.7.62.75,2.42.81,3.66.69,2.86-.29,4.74-2.23,6.12-4.53,2.98-4.97,5.89-9.99,8.64-15.09.91-1.69,1.92-2.28,3.79-2.24,4.81.12,9.62,0,14.43.05,7.81.08,11.36,5.09,8.92,12.53-2.48,7.53-10.09,13.37-18.02,13.58-5.37.14-10.74.04-16.5.03Z"/>
      <g>
        <path class="cls-2" d="M72.23,17.48c-.94,0-1.73-.11-2.36-.33-.63-.22-1.14-.53-1.52-.92-.38-.39-.65-.85-.8-1.39-.15-.54-.23-1.12-.23-1.75v-7.42h2.57v7.46c0,.75.21,1.35.62,1.8.41.45.99.68,1.72.68s1.33-.23,1.74-.69c.41-.46.61-1.06.61-1.8v-7.46h2.57v7.42c0,.63-.08,1.21-.24,1.75-.16.54-.43,1-.8,1.39-.38.39-.88.7-1.51.92-.63.22-1.42.33-2.38.33Z"/>
        <path class="cls-5" d="M89.59,15.03h.37c.21,0,.39-.03.53-.08.14-.05.26-.14.35-.26.09-.12.16-.26.21-.43.05-.16.1-.37.15-.61l1.68-7.85h2.65l-1.59,7.22c-.15.63-.3,1.21-.45,1.75-.15.54-.36,1.01-.62,1.41-.26.39-.59.71-1,.93-.41.23-.94.34-1.6.34h-2.83l-2-9.23h-.38c-.21,0-.39.03-.53.08-.14.05-.26.14-.35.26-.09.12-.16.26-.21.43-.05.16-.1.36-.15.59l-1.68,7.87h-2.65l1.59-7.22c.15-.63.3-1.21.45-1.75.15-.54.36-1.02.62-1.41.26-.4.6-.71,1.01-.93.41-.22.95-.33,1.6-.33h2.83l2,9.23Z"/>
        <path class="cls-4" d="M100.7,5.67l-.05,11.65h-2.57l.06-11,2.56-.65Z"/>
        <path class="cls-7" d="M103.13,13.56v-2.05h6.94v2.05h-6.94Z"/>
        <path class="cls-6" d="M111.63,5.67h4.91c.76,0,1.48.14,2.14.43.67.29,1.24.69,1.72,1.21.48.52.85,1.14,1.13,1.86.28.72.41,1.51.41,2.38,0,.94-.14,1.78-.41,2.51-.28.73-.65,1.35-1.13,1.86-.48.51-1.05.89-1.71,1.15-.66.26-1.38.39-2.15.39h-4.91V5.67ZM114.19,7.85v9.6l1.02-1.98h1.32c.4,0,.78-.1,1.12-.29.34-.19.65-.42.91-.69.26-.27.45-.64.56-1.1.11-.47.17-1,.17-1.6s-.07-1.11-.2-1.6c-.13-.49-.32-.91-.56-1.25-.24-.34-.53-.61-.87-.8-.34-.19-.72-.29-1.14-.29h-2.34Z"/>
        <path class="cls-10" d="M129.84,17.32h-2.48v-4.2l-3.78-7.45h2.8l2.18,5.31,2.26-5.31h2.8l-3.77,7.42v4.23Z"/>
        <path class="cls-9" d="M142.95,17.47c-1.56,0-2.39,0-2.51-.01h-1.92c-.87,0-1.61-.28-2.22-.84-.61-.56-.91-1.23-.91-2.01v-5.23c.03-1.37.4-2.34,1.1-2.93.44-.4.87-.63,1.28-.68.41-.05,2.14-.07,5.19-.07l.84,2.08h-4.96c-.71.1-1.1.64-1.18,1.62v1.3h5.27v2.05h-5.27v1.86c0,.23.09.42.26.56.17.14.39.22.64.22l1.72.03h3.51s-.84,2.06-.84,2.06Z"/>
      </g>
      <text class="cls-8" transform="translate(66.01 25.33)"><tspan x="0" y="0">TEXTILE CHEMICALS</tspan></text>
      <text class="cls-1" transform="translate(66.19 33.19) scale(.9 1)"><tspan x="0" y="0">Service More Than Sale</tspan></text>
      <g>
        <path class="cls-3" d="M7.53,19.77l-.06.1s.03-.07.06-.1Z"/>
        <path class="cls-3" d="M9.27,25.22c-.07.17-.17.3-.4.25,0,0-.03,0-.03,0l-.02-.02c-.27-.1-.51-.23-.76-.37-.17-.1-.34-.2-.52-.29-.61-.31-1.17-.71-1.83-.94-.41.22-.41.49.01.72.64.36,1.28.7,1.92,1.06.08.05.15.09.2.13-.06.21-.11.43-.14.63-.08.09-.15.12-.33-.02-.04-.03-.07-.05-.11-.08-.17-.13-.36-.26-.58-.33l-.4-.23s-.4-.06-.13.64c0,.11-.03.21-.1.32-.12.17-.2.33-.48.28-.24-.04-.35-.24-.36-.38-.01-.1-.03-.2-.06-.3h0c-.06-.23-.13-.46-.12-.7-.05-.18-.11-.35-.17-.53-.09-.28-.17-.56-.23-.84-.11-.57.05-1.1.43-1.55.27-.45.73-.63,1.22-.76.03,0,.06-.02.09-.02.65-.17,1.3-.32,1.95-.49.17-.04.33-.1.34-.31.02-.2-.11-.3-.27-.39-.24-.13-.48-.26-.71-.4-.12-.07-.26-.14-.22-.31-.01-.06,0-.11,0-.16l.06-.1s.08-.07.14-.09c.03,0,.06-.01.09-.02.05,0,.09,0,.14,0,.29.05.5.24.75.37.52.27,1.04.55,1.56.83.04.02.09.05.13.07.09-.03.17-.06.26-.09.13-.17.13-.34,0-.52l-.07-.04c-.84-.46-1.68-.92-2.51-1.38-.02-.01-.05-.03-.07-.04-.13-.07-.29-.11-.35-.27-.12-.17-.07-.32.07-.43.15-.13.32-.08.48.01.07.04.15.08.22.12.73.4,1.46.8,2.18,1.2.09.05.17.1.26.14.03.01.05.02.08.03.18.07.36.05.46-.13.1-.18.04-.34-.12-.46-.03-.02-.06-.04-.09-.06-.67-.37-1.34-.73-2-1.1-.04-.02-.08-.04-.12-.06-.09-.05-.17-.11-.15-.24,0-.34.22-.49.54-.34.26.12.52.28.77.42.16.09.33.13.48.01.14-.11.13-.26.08-.42-.2-.64-.39-1.27-.59-1.91-.02-.02-.04-.04-.05-.07-.01-.03-.01-.07,0-.11-.28-.91.07-1.86.87-2.3.17-.15.38-.22.6-.27.67-.17,1.35-.33,2.02-.5.24-.06.45-.02.54.22.1.25-.04.41-.3.48-.18.04-.33.11-.33.31,0,.19.11.3.28.39.25.13.5.26.74.41.31.19.29.46-.03.63-.04.04-.09.03-.14,0h0c-.08.03-.15-.02-.21-.06-.13-.07-.27-.15-.4-.22-.59-.32-1.18-.65-1.77-.98-.05,0-.1,0-.15-.01-.16.07-.32.14-.32.34,0,.2.15.29.3.38.6.33,1.2.66,1.79.98.21.12.43.23.64.35.08.04.15.08.23.13.21.14.26.32.13.51-.12.18-.31.2-.51.09-.28-.15-.56-.31-.85-.46-.15-.08-.3-.16-.44-.24-.47-.26-.94-.51-1.4-.77-.21-.11-.41-.13-.53.08-.13.22-.02.39.2.51.61.34,1.22.68,1.84,1.01.05.03.09.05.14.07.24.13.39.28.27.55-.09.2-.33.23-.61.08-.05-.03-.1-.05-.15-.08-.13-.07-.26-.14-.39-.21-.19-.1-.38-.24-.6-.09-.22.15-.12.37-.07.57,0,.03.02.06.03.08.07.2.16.4.18.62.01.04.03.08.04.12.03.06.06.13.08.19.1.26.18.53.23.8.02.06.04.12.06.19.05.16.15.33.13.48-.07.56-.17,1.13-.67,1.51-.22.27-.53.41-.86.51-.29.09-.58.18-.89.2-.02.02-.03.04-.05.07-.04,0-.07,0-.11.01-.43.05-.84.21-1.25.31-.15.04-.22.15-.24.29-.01.15.06.25.2.33.19.1.38.2.57.31.08.04.15.09.23.13.2.12.27.3.18.51-.09.19-.25.23-.45.14-.08-.04-.16-.08-.24-.12-.54-.28-1.07-.58-1.6-.88-.12-.06-.24-.11-.35-.17-.21-.11-.39-.06-.5.11-.12.2-.02.35.18.46.66.36,1.32.73,1.98,1.09.08.04.16.09.24.13.18.1.36.2.53.32.12.09.24.2.17.37Z"/>
        <polygon class="cls-3" points="9.73 21.87 9.73 21.87 9.73 21.87 9.73 21.87"/>
        <polygon class="cls-3" points="9.73 21.87 9.73 21.87 9.73 21.87 9.73 21.87"/>
      </g>
    </g>
  </g>
</svg>