<?xml version="1.0" encoding="utf-8"?>
<!-- Generator: Adobe Illustrator 25.0.1, SVG Export Plug-In . SVG Version: 6.00 Build 0)  -->
<svg version="1.1" id="Layer_1" xmlns="http://www.w3.org/2000/svg" xmlns:xlink="http://www.w3.org/1999/xlink" x="0px" y="0px"
	 viewBox="0 0 86.88 125.29" style="enable-background:new 0 0 86.88 125.29;" xml:space="preserve">
<g id="Group_100" transform="translate(180.078 5.161)">
	<path id="Path_91" class="st12" d="M-96.22,43.66c-0.1,5.9-1.46,11.71-3.98,17.05c-5.73,11.77-12.64,22.93-20.62,33.31
		c-4.44,5.93-9.18,11.66-13.82,17.45c-1.38,1.73-2.74,1.7-4.16,0c-11.22-12.92-21.17-26.9-29.71-41.73
		c-2.43-4.14-4.53-8.48-6.27-12.96c-7.39-21.01,3.66-44.04,24.67-51.43c21.01-7.39,44.04,3.66,51.43,24.67
		c0.78,2.21,1.36,4.49,1.74,6.81C-96.54,39.16-96.44,41.43-96.22,43.66z M-157.7,43.57c0,11.59,9.4,20.98,20.98,20.98
		c11.59,0,20.98-9.4,20.98-20.98c0-11.59-9.4-20.98-20.98-20.98c-0.03,0-0.06,0-0.09,0c-11.56,0.03-20.91,9.42-20.9,20.98
		L-157.7,43.57z"/>
</g>
</svg>
